<?xml version="1.0" encoding="UTF-8"?><svg id="Layer_1" xmlns="http://www.w3.org/2000/svg" viewBox="0 0 480 480"><defs><style>.cls-1{fill:#a86654;}</style></defs><path class="cls-1" d="m240.5,40c-109.86,0-198.95,89.09-198.95,198.95s89.09,198.95,198.95,198.95,198.95-89.09,198.95-198.95S350.36,40,240.5,40Zm74.16,281.37c-18.03,16.61-42.63,26.38-71.99,26.38-42.5,0-79.27-24.38-97.16-59.91-7.37-14.7-11.59-31.31-11.59-48.9s4.22-34.2,11.59-48.9c17.89-35.57,54.67-59.95,97.16-59.95,29.31,0,53.92,10.79,72.78,28.33l-31.18,31.22c-11.28-10.79-25.62-16.26-41.57-16.26-28.33,0-52.31,19.14-60.88,44.85-2.18,6.53-3.42,13.5-3.42,20.69s1.24,14.17,3.42,20.69c8.57,25.71,32.55,44.85,60.83,44.85,14.66,0,27.09-3.87,36.82-10.39,11.55-7.73,19.19-19.23,21.72-32.86h-58.54v-42.1h102.45c1.29,7.15,1.96,14.57,1.96,22.25,0,33.17-11.86,61.02-32.42,79.98h.01Z"/></svg>