<?xml version="1.0" encoding="utf-8"?>
<!-- Generator: Adobe Illustrator 27.2.0, SVG Export Plug-In . SVG Version: 6.00 Build 0)  -->
<svg version="1.1" id="Layer_1" xmlns="http://www.w3.org/2000/svg" xmlns:xlink="http://www.w3.org/1999/xlink" x="0px" y="0px"
	 viewBox="0 0 480 480" style="enable-background:new 0 0 480 480;" xml:space="preserve">
<style type="text/css">
	.st0{fill:#A86654;}
</style>
<path class="st0" d="M160,60c-55.2,0-100,44.8-100,100v160c0,55.2,44.8,100,100,100h160c55.2,0,100-44.8,100-100V160
	c0-55.2-44.8-100-100-100H160z M360,100c11,0,20,9,20,20s-9,20-20,20s-20-9-20-20S349,100,360,100z M240,140
	c55.2,0,100,44.8,100,100s-44.8,100-100,100s-100-44.8-100-100S184.8,140,240,140z M240,180c-33.1,0-60,26.9-60,60s26.9,60,60,60
	s60-26.9,60-60S273.1,180,240,180z"/>
</svg>
