<?xml version="1.0" encoding="UTF-8"?><svg id="Layer_1" xmlns="http://www.w3.org/2000/svg" viewBox="0 0 301.6 37.76"><defs><style>.cls-1{fill:#e6e5da;}</style></defs><path class="cls-1" d="m3.88,30V9.2h4.32v20.8c0,5.55-2.73,8.12-8.2,7.72v-4.16c1.33.13,2.31-.08,2.94-.64.63-.56.94-1.53.94-2.92ZM7.96,5.4c-.53.53-1.17.8-1.92.8s-1.4-.27-1.96-.8c-.53-.56-.8-1.21-.8-1.96s.27-1.39.8-1.92c.56-.56,1.21-.84,1.96-.84s1.39.28,1.92.84c.56.53.84,1.17.84,1.92s-.28,1.4-.84,1.96Z"/><path class="cls-1" d="m22.68,29.72c-2.96,0-5.45-1.01-7.48-3.04-2.05-2.05-3.08-4.55-3.08-7.48s1.03-5.43,3.08-7.48,4.52-3.04,7.48-3.04,5.45,1.01,7.48,3.04c2.05,2.05,3.08,4.55,3.08,7.48s-1.03,5.43-3.08,7.48-4.52,3.04-7.48,3.04Zm-6.24-10.52c0,1.81.6,3.32,1.8,4.52s2.68,1.8,4.44,1.8,3.24-.6,4.44-1.8c1.2-1.2,1.8-2.71,1.8-4.52s-.6-3.32-1.8-4.52c-1.2-1.2-2.68-1.8-4.44-1.8s-3.24.6-4.44,1.8-1.8,2.71-1.8,4.52Z"/><path class="cls-1" d="m40.64,14.72c0,.61.32,1.11.96,1.5.64.39,1.57.75,2.8,1.1.93.21,1.75.44,2.44.68.69.24,1.43.59,2.2,1.06.77.47,1.37,1.08,1.78,1.84.41.76.61,1.65.58,2.66,0,1.92-.75,3.43-2.24,4.52-1.49,1.09-3.35,1.64-5.56,1.64-1.97,0-3.67-.41-5.08-1.24-1.41-.83-2.44-1.97-3.08-3.44l3.72-2.16c.67,1.92,2.15,2.88,4.44,2.88s3.4-.75,3.4-2.24c0-1.09-1.27-1.95-3.8-2.56-.96-.24-1.77-.48-2.42-.72-.65-.24-1.37-.59-2.16-1.04-.79-.45-1.39-1.05-1.8-1.8-.41-.75-.61-1.61-.58-2.6,0-1.84.69-3.32,2.08-4.44,1.41-1.12,3.16-1.68,5.24-1.68,1.65,0,3.13.37,4.42,1.1,1.29.73,2.29,1.75,2.98,3.06l-3.64,2.04c-.67-1.52-1.92-2.28-3.76-2.28-.85,0-1.55.19-2.1.56-.55.37-.82.89-.82,1.56Z"/><path class="cls-1" d="m65.48,8.68c2.32,0,4.18.74,5.58,2.22s2.1,3.49,2.1,6.02v12.28h-4.32v-11.84c0-1.49-.4-2.64-1.2-3.44s-1.89-1.2-3.28-1.2c-1.57,0-2.81.49-3.72,1.46-.91.97-1.36,2.41-1.36,4.3v10.72h-4.32V1.2h4.32v10.56c1.33-2.05,3.4-3.08,6.2-3.08Z"/><path class="cls-1" d="m91.28,19.92v-10.72h4.32v20h-4.32v-2.56c-1.33,2.05-3.4,3.08-6.2,3.08-2.32,0-4.18-.74-5.58-2.22-1.4-1.48-2.1-3.49-2.1-6.02v-12.28h4.32v11.84c0,1.49.4,2.64,1.2,3.44.8.8,1.89,1.2,3.28,1.2,1.57,0,2.81-.49,3.72-1.46.91-.97,1.36-2.41,1.36-4.3Z"/><path class="cls-1" d="m116.48,12.04v-2.84h4.32v20h-4.32v-2.88c-1.63,2.27-3.96,3.4-7,3.4-2.75,0-5.09-1.01-7.04-3.04-1.95-2.03-2.92-4.52-2.92-7.48s.97-5.45,2.92-7.48c1.95-2.03,4.29-3.04,7.04-3.04,3.04,0,5.37,1.12,7,3.36Zm-10.84,11.76c1.2,1.2,2.71,1.8,4.52,1.8s3.32-.6,4.52-1.8c1.2-1.23,1.8-2.76,1.8-4.6s-.6-3.36-1.8-4.56c-1.2-1.23-2.71-1.84-4.52-1.84s-3.32.61-4.52,1.84c-1.2,1.2-1.8,2.72-1.8,4.56s.6,3.35,1.8,4.6Z"/><path class="cls-1" d="m147.16,8.68c2.72,0,5.07,1.03,7.04,3.08,1.95,2.03,2.92,4.51,2.92,7.44s-.97,5.45-2.92,7.48c-1.95,2.03-4.29,3.04-7.04,3.04-3.01,0-5.35-1.12-7-3.36v10.84h-4.32V9.2h4.32v2.88c1.63-2.27,3.96-3.4,7-3.4Zm-5.2,15.12c1.2,1.2,2.71,1.8,4.52,1.8s3.32-.6,4.52-1.8c1.2-1.23,1.8-2.76,1.8-4.6s-.6-3.36-1.8-4.56c-1.2-1.23-2.71-1.84-4.52-1.84s-3.32.61-4.52,1.84c-1.2,1.2-1.8,2.72-1.8,4.56s.6,3.35,1.8,4.6Z"/><path class="cls-1" d="m176.88,12.04v-2.84h4.32v20h-4.32v-2.88c-1.63,2.27-3.96,3.4-7,3.4-2.75,0-5.09-1.01-7.04-3.04-1.95-2.03-2.92-4.52-2.92-7.48s.97-5.45,2.92-7.48c1.95-2.03,4.29-3.04,7.04-3.04,3.04,0,5.37,1.12,7,3.36Zm-10.84,11.76c1.2,1.2,2.71,1.8,4.52,1.8s3.32-.6,4.52-1.8c1.2-1.23,1.8-2.76,1.8-4.6s-.6-3.36-1.8-4.56c-1.2-1.23-2.71-1.84-4.52-1.84s-3.32.61-4.52,1.84c-1.2,1.2-1.8,2.72-1.8,4.56s.6,3.35,1.8,4.6Z"/><path class="cls-1" d="m194.24,24.4l5.56-15.2h4.72l-7.8,20h-5l-7.8-20h4.72l5.6,15.2Z"/><path class="cls-1" d="m211.56,29.2h-4.32V0h4.32v29.2Z"/><path class="cls-1" d="m232.4,12.04v-2.84h4.32v20h-4.32v-2.88c-1.63,2.27-3.96,3.4-7,3.4-2.75,0-5.09-1.01-7.04-3.04-1.95-2.03-2.92-4.52-2.92-7.48s.97-5.45,2.92-7.48c1.95-2.03,4.29-3.04,7.04-3.04,3.04,0,5.37,1.12,7,3.36Zm-10.84,11.76c1.2,1.2,2.71,1.8,4.52,1.8s3.32-.6,4.52-1.8c1.2-1.23,1.8-2.76,1.8-4.6s-.6-3.36-1.8-4.56c-1.2-1.23-2.71-1.84-4.52-1.84s-3.32.61-4.52,1.84c-1.2,1.2-1.8,2.72-1.8,4.56s.6,3.35,1.8,4.6Z"/><path class="cls-1" d="m251.2,29.72c-3.01,0-5.53-1.01-7.56-3.04-2-2.05-3-4.55-3-7.48s1-5.48,3-7.48c2.03-2.03,4.55-3.04,7.56-3.04,1.95,0,3.72.47,5.32,1.4,1.6.93,2.8,2.19,3.6,3.76l-3.72,2.16c-.45-.96-1.14-1.71-2.06-2.26-.92-.55-1.98-.82-3.18-.82-1.76,0-3.24.6-4.44,1.8-1.17,1.23-1.76,2.72-1.76,4.48s.59,3.25,1.76,4.48c1.2,1.2,2.68,1.8,4.44,1.8,1.17,0,2.23-.27,3.18-.82.95-.55,1.66-1.3,2.14-2.26l3.72,2.12c-.85,1.6-2.09,2.87-3.7,3.8s-3.38,1.4-5.3,1.4Z"/><path class="cls-1" d="m271.88,19l9.12,10.2h-5.16l-8.2-9.24v9.24h-4.32V1.2h4.32v16.84l7.76-8.84h5.28l-8.8,9.8Z"/><path class="cls-1" d="m291.88,23.72l5.12-14.52h4.6l-7.68,20.64c-1.92,5.17-5.17,7.63-9.76,7.36v-4.04c1.33.08,2.41-.2,3.24-.84.83-.64,1.52-1.67,2.08-3.08l.2-.4-8.48-19.64h4.72l5.96,14.52Z"/></svg>