<?xml version="1.0" encoding="UTF-8"?><svg id="Layer_1" xmlns="http://www.w3.org/2000/svg" viewBox="0 0 480 480"><defs><style>.cls-1{fill:#a86654;}</style></defs><path class="cls-1" d="m145.15,87.5l32.94,32.93c9.73,9.63,12.52,24.25,7.03,36.79-2.94,6.87-7.1,13.14-12.29,18.52-37.67,37.66,85.6,160.93,123.25,123.25,5.37-5.22,11.66-9.4,18.53-12.34,12.54-5.5,27.16-2.7,36.79,7.04l32.92,32.99c12.98,13.03,12.95,34.11-.08,47.11-2.41,2.4-5.16,4.41-8.17,5.97-26.53,14.17-57.44,17.81-86.53,10.15-77.2-19.45-188.17-130.42-207.6-207.61-7.66-29.09-4.04-60,10.14-86.53,8.48-16.32,28.59-22.69,44.91-14.22,3.01,1.56,5.76,3.58,8.17,5.97Z"/></svg>