<?xml version="1.0" encoding="UTF-8"?><svg id="Layer_1" xmlns="http://www.w3.org/2000/svg" viewBox="0 0 480 480"><defs><style>.cls-1{fill:#a86654;}.cls-2{fill:none;stroke:#a86654;stroke-miterlimit:10;stroke-width:4px;}</style></defs><path class="cls-1" d="m372.36,184.35c0,23.48-6.5,46.24-18.79,65.75,0,0-4.34,8.67-80.2,148.12-6.86,12.28-15.9,18.79-26.37,18.79s-19.51-6.5-26.01-18.79c-80.2-148.12-80.93-149.57-80.93-150.29-11.56-18.42-17.7-40.82-17.7-63.58,0-69,56-125,125-125s125,56,125,125Zm-70.45,5.78c0-29.99-24.57-54.55-54.55-54.55s-54.55,24.57-54.55,54.55,24.57,54.55,54.55,54.55,54.55-24.57,54.55-54.55Z"/><g><path class="cls-2" d="m247,417.01c-10.12,0-19.51-6.5-26.01-18.79-80.2-148.12-80.93-149.57-80.93-150.29-11.56-18.42-17.7-40.82-17.7-63.58,0-69,56-125,125-125s125,56,125,125c0,23.48-6.5,46.24-18.79,65.75,0,0-4.34,8.67-80.2,148.12-6.86,12.28-15.9,18.79-26.37,18.79Z"/><circle class="cls-2" cx="247.36" cy="190.13" r="54.55"/></g></svg>