<?xml version="1.0" encoding="UTF-8"?><svg id="Layer_1" xmlns="http://www.w3.org/2000/svg" viewBox="0 0 480 480"><defs><style>.cls-1{fill:#a86654;}</style></defs><path class="cls-1" d="m238.5,60c-99.4,0-180,80.6-180,180,0,76.26,47.45,141.39,114.4,167.61-1.57-14.23-3-36.09.63-51.63,3.27-14.04,21.1-89.48,21.1-89.48,0,0-5.39-10.78-5.39-26.72,0-25.03,14.51-43.71,32.56-43.71,15.36,0,22.77,11.54,22.77,25.35,0,15.45-9.82,38.54-14.91,59.92-4.24,17.92,8.98,32.54,26.65,32.54,31.99,0,56.58-33.74,56.58-82.42,0-43.1-30.96-73.23-75.18-73.23-51.21,0-81.27,38.41-81.27,78.12,0,15.47,5.96,32.06,13.39,41.08,1.47,1.78,1.68,3.34,1.25,5.16-1.36,5.68-4.4,17.91-5,20.42-.78,3.3-2.61,3.99-6.02,2.4-22.48-10.47-36.54-43.33-36.54-69.74,0-56.77,41.25-108.93,118.93-108.93,62.45,0,110.97,44.49,110.97,103.97s-39.12,111.96-93.4,111.96c-18.24,0-35.39-9.48-41.25-20.67,0,0-9.03,34.37-11.22,42.8-4.06,15.63-15.03,35.24-22.38,47.19,16.85,5.19,34.74,8.01,53.3,8.01,99.4,0,180-80.6,180-180S337.91,60,238.5,60Z"/></svg>