<?xml version="1.0" encoding="UTF-8"?><svg id="Layer_1" xmlns="http://www.w3.org/2000/svg" viewBox="0 0 480 480"><defs><style>.cls-1{fill:#a86654;}</style></defs><path class="cls-1" d="m327.55,167.42c12.95,10.71,48.47,40.08,42.68,60.69-2.68,9.26-13.31,12.23-21.2,15.12-18.16,6.58-36.82,11.79-55.77,15.62-15.34,3.11-48.11,9.91-42.03-17.22,2.39-10.49,10.85-19.39,17.65-27.27,13.96-16.42,28.21-33.78,45.07-47.24,1.37-1.09,3.04-1.37,4.49-1.16,2.82-1.16,6.22-1.01,9.12,1.45Z"/><path class="cls-1" d="m308.45,383.86c-11.36-9.19-19.39-23.58-26.33-36.17-6.8-12.15-17.51-28.21-19.31-42.32-3.69-29.01,38.34-11.57,50.42-7.38,16.06,5.64,59.1,11.86,54.33,36.96-3.98,20.47-28.65,45.43-49.26,48.61-.22.07-.51,0-.8,0l-.22.22c-.58.29-1.23.65-1.88.94-2.46,1.3-4.85.8-6.95-.87Z"/><path class="cls-1" d="m214.48,309.2c22.86-9.48,24.96,16.06,24.81,31.54-.22,18.45-.8,36.96-2.17,55.34-.51,7.45-.22,16.42-7.31,21.12-8.75,5.79-25.61,1.23-34.65-1.59-.29-.15-.58-.29-.87-.36-19.02-3.33-42.25-12.08-44.49-29.66-.22-2.02.58-3.83,1.81-5.21.58-1.09,1.16-2.1,1.81-3.04,2.82-3.91,6.08-7.38,9.33-10.92,5.5-8.17,11.43-16.06,17.72-23.66,9.11-11,20.33-27.92,34-33.57Z"/><path class="cls-1" d="m217.81,229.92c-33.35-27.42-65.83-69.88-82.61-109.16-12.8-29.88,19.75-48.11,44.85-56.35,33.86-11.14,47.31-1.45,50.71,32.41,2.82,29.15,4.12,58.52,3.91,87.82-.07,12.37,3.4,32.34-3.83,43.48,1.16,4.56-5.71,7.81-9.62,4.7-.58-.43-1.16-1.01-1.81-1.52-.58-.36-1.08-.8-1.59-1.37Z"/><path class="cls-1" d="m214.19,272.38c2.68,11.86-5.71,16.64-15.55,21.12-17.51,7.89-35.88,14.18-54.33,19.39-10.71,2.97-27.13,10.06-37.47,2.17-7.81-5.93-8.32-18.3-9.04-27.27-1.59-20.04,1.45-67.85,29.22-69.88,13.6-.94,30.6,11.21,41.74,17.58,14.83,8.54,30.74,18.3,41.81,31.69,1.66.94,3.04,2.6,3.62,5.21Z"/></svg>