<?xml version="1.0" encoding="utf-8"?>
<!-- Generator: Adobe Illustrator 25.2.0, SVG Export Plug-In . SVG Version: 6.00 Build 0)  -->
<svg version="1.1" id="Layer_1" xmlns="http://www.w3.org/2000/svg" xmlns:xlink="http://www.w3.org/1999/xlink" x="0px" y="0px"
	 viewBox="0 0 612 383.46" style="enable-background:new 0 0 612 383.46;" xml:space="preserve">
<style type="text/css">
	.st0{fill:#A86654;}
	.st1{display:none;}
	.st2{display:inline;fill:#FFFFFF;}
	.st3{display:inline;fill:#A86654;}
	.st4{fill:#FFFDFD;}
</style>
<rect class="st0" width="612" height="0"/>
<g class="st1">
	<path class="st2" d="M198.82-197.59c-8.63,4.38-15.6,3.33-20.78-3.12c-4.54-5.65-4.4-15.09,0.31-20.69
		c4.84-5.75,12.5-6.81,20.57-2.55c0-1.66,0-3.12,0-4.58c0-4.56,0.06-9.11-0.02-13.67c-0.03-1.85,0.65-2.52,2.52-2.54
		c4.66-0.04,4.66-0.11,4.66,4.44c0,13.59,0.03,27.18-0.05,40.77c-0.01,1.32-0.35,3.43-1.18,3.82
		C202.49-194.62,199.99-195.68,198.82-197.59z M181.74-210.83c-0.01,5.75,3.71,9.74,9,9.68c4.98-0.06,8.99-4.4,8.96-9.69
		c-0.03-5.42-3.9-9.44-9.1-9.42C185.17-220.25,181.75-216.61,181.74-210.83z"/>
	<path class="st2" d="M284.54-197.71c0,4.68-0.08,9.07,0.04,13.45c0.05,1.81-0.64,2.34-2.35,2.39c-4.7,0.15-4.7,0.21-4.7-4.57
		c0-11.99-0.03-23.99,0.05-35.98c0.01-1.22-0.98-3.06,1.14-3.62c2.73-0.72,4.77,0.02,6.04,2.17c3.99-2.81,8.36-3.71,13.1-2.24
		c3.4,1.05,6.15,3.03,8.22,5.91c4.12,5.73,3.65,14.77-0.99,20.11C300.08-194.34,293.01-193.44,284.54-197.71z M301.75-210.89
		c-0.04-5.57-3.69-9.72-8.49-9.63c-5.43,0.11-9.28,4.18-9.26,9.79c0.02,5.51,3.97,9.66,9.15,9.59
		C298.29-201.21,301.79-205.17,301.75-210.89z"/>
	<path class="st2" d="M448.66-223.78c4.55-3.93,9.11-3.71,13.64-1.52c4.54,2.19,6.11,6.25,6.07,11.1
		c-0.04,5.36-0.07,10.72,0.02,16.07c0.03,1.92-0.51,2.71-2.56,2.65c-5.16-0.16-4.41,0.46-4.45-4.52c-0.04-4.56,0.02-9.12-0.02-13.67
		c-0.04-4.21-2.28-6.81-5.79-6.81c-3.8,0-6.85,2.93-6.91,6.81c-0.08,5.2-0.1,10.4,0,15.59c0.04,1.99-0.66,2.65-2.64,2.59
		c-5.1-0.16-4.39,0.49-4.4-4.3c-0.03-13.91-0.01-27.83-0.01-41.74c0-3.18,0.01-3.18,3.15-3.2c3.9-0.02,3.9-0.02,3.9,3.93
		C448.66-235.31,448.66-229.8,448.66-223.78z"/>
	<path class="st2" d="M383.96-197.83c-8.12,4.61-15.72,3.57-20.77-2.6c-4.87-5.94-4.84-14.97,0.07-20.82
		c5.11-6.08,12.74-7.12,20.45-2.66c1.11-3.11,3.76-2.13,6-2.08c0.42,0.01,1.15,1.07,1.16,1.65c0.07,9.03,0.05,18.06,0.05,27.09
		c0,1.32-0.63,1.95-1.93,1.75C387.12-195.78,384.54-194.35,383.96-197.83z M366.6-210.73c0.01,5.64,3.79,9.64,9.07,9.58
		c4.95-0.06,8.88-4.33,8.88-9.68c0-5.41-3.8-9.4-8.99-9.44C370.1-220.3,366.59-216.56,366.6-210.73z"/>
	<path class="st2" d="M271.73-203.02c-2.47,5.31-8.09,8.61-13.66,8.31c-6.28-0.34-11.58-4.23-13.67-10.03
		c-2.8-7.79-0.23-16,6.38-20.04c5.17-3.16,10.47-2.77,15.42,0.34c4.93,3.09,6.64,7.95,6.32,13.63c-0.09,1.63-1.09,1.9-2.45,1.9
		c-5.68-0.03-11.35-0.02-17.03-0.01c-2.63,0-2.98,0.54-1.99,2.96c1.96,4.8,8.64,6.38,12.73,3.01c0.96-0.79,2-2.35,2.83-2.24
		C268.33-204.96,269.93-203.85,271.73-203.02z M251.35-215.61c4.64,0,9.1,0,13.65,0c-1.03-3.27-3.15-4.67-6.63-4.65
		C254.65-220.23,252.24-218.67,251.35-215.61z"/>
	<path class="st2" d="M218.3-208.92c0.32,3.73,1.92,5.93,4.85,7.1c3.05,1.22,5.95,0.97,8.54-1.23c0.89-0.76,1.9-2.31,2.61-2.18
		c1.79,0.33,3.45,1.41,5.15,2.19c-2.63,6.31-10.17,9.63-17.04,7.77c-7.46-2.02-11.64-8.65-11.13-17.67
		c0.39-6.86,5.87-12.77,12.83-13.81c9-1.35,17.14,6.5,16.29,15.63c-0.17,1.81-1.07,2.23-2.68,2.21c-5.52-0.05-11.04-0.02-16.56-0.02
		C220.29-208.92,219.44-208.92,218.3-208.92z M232.87-215.51c-1.23-3.47-3.8-5.11-7.14-4.87c-3.63,0.27-5.84,1.88-6.53,4.87
		C223.7-215.51,228.16-215.51,232.87-215.51z"/>
	<path class="st2" d="M334.53-208.79c0.37,3.73,2.07,5.97,5.13,7.09c3.1,1.14,6.28,0.97,8.39-1.61c1.93-2.35,3.56-2,5.63-0.71
		c0.6,0.37,1.23,0.69,2.18,1.22c-2.02,3.49-4.59,6-8.32,7.22c-10.01,3.26-19.86-3.76-20.09-14.29c-0.21-9.51,4.91-15.86,13.67-16.93
		c8.69-1.07,17.01,7.74,15.42,16.26c-0.28,1.51-1.25,1.64-2.45,1.63c-5.6-0.01-11.19-0.01-16.79,0
		C336.44-208.91,335.59-208.84,334.53-208.79z M349.07-215.52c-1.19-3.46-4.06-5.22-7.43-4.88c-3.41,0.35-5.78,2.23-6.09,4.88
		C339.97-215.52,344.39-215.52,349.07-215.52z"/>
	<path class="st2" d="M429.34-239c0,2.27,0,4.38,0,6.49c0,0.64,0,1.28,0,1.92c0,4.33-0.01,4.39,4.21,4.46
		c1.54,0.02,2.24,0.53,2.13,2.08c-0.05,0.72-0.05,1.44,0,2.16c0.13,1.65-0.6,2.24-2.24,2.28c-4.1,0.1-4.1,0.17-4.1,4.38
		c0,3.12-0.02,6.24,0.01,9.36c0.04,3.49,0.67,4.05,4.16,3.8c0.78-0.06,1.56-0.11,2.73-0.18c0,1.74,0.16,3.33-0.08,4.85
		c-0.1,0.63-1.01,1.47-1.67,1.6c-6.5,1.31-12.34-1.87-12.11-8.99c0.14-4.16-0.04-8.32,0.05-12.48c0.04-1.72-0.45-2.48-2.3-2.42
		c-1.1,0.04-3.02-0.22-3.17-0.74c-0.43-1.55-0.32-3.32-0.06-4.95c0.06-0.36,1.63-0.77,2.45-0.67c2.47,0.3,3.2-0.63,3.09-3.07
		C422.28-232.99,425.63-237.9,429.34-239z"/>
	<path class="st2" d="M404.89-223.96c2.56-0.99,4.9-2.13,7.36-2.74c0.98-0.24,3.05,0.46,3.23,1.11c0.45,1.68,0.21,3.59,0,5.37
		c-0.03,0.27-1.39,0.53-2.14,0.56c-6.21,0.17-8.37,2.42-8.34,8.73c0.02,4.4-0.04,8.8,0.03,13.2c0.03,1.64-0.53,2.28-2.22,2.24
		c-5.73-0.11-4.77,0.51-4.8-4.63c-0.06-7.68-0.05-15.36,0.02-23.04c0.01-1.02-0.74-2.52,1.17-2.91c2.78-0.56,4.72,0.04,5.49,1.76
		C404.82-224.03,405-223.78,404.89-223.96z"/>
	<path class="st3" d="M181.74-210.83c0.01-5.78,3.43-9.42,8.87-9.43c5.19-0.02,9.07,4,9.1,9.42c0.03,5.29-3.98,9.63-8.96,9.69
		C185.45-201.09,181.73-205.08,181.74-210.83z"/>
	<path class="st3" d="M301.75-210.89c0.04,5.72-3.46,9.68-8.6,9.75c-5.17,0.07-9.13-4.08-9.15-9.59c-0.02-5.61,3.83-9.68,9.26-9.79
		C298.06-220.62,301.72-216.47,301.75-210.89z"/>
	<path class="st3" d="M366.6-210.73c-0.01-5.84,3.5-9.57,8.97-9.53c5.19,0.03,8.99,4.02,8.99,9.44c0,5.34-3.93,9.62-8.88,9.68
		C370.39-201.09,366.61-205.08,366.6-210.73z"/>
	<path class="st3" d="M251.35-215.61c0.89-3.07,3.3-4.62,7.02-4.65c3.48-0.02,5.6,1.38,6.63,4.65
		C260.46-215.61,255.99-215.61,251.35-215.61z"/>
	<path class="st3" d="M232.87-215.51c-4.72,0-9.18,0-13.67,0c0.69-2.99,2.9-4.6,6.53-4.87
		C229.07-220.62,231.64-218.98,232.87-215.51z"/>
	<path class="st3" d="M349.07-215.52c-4.68,0-9.1,0-13.52,0c0.31-2.65,2.68-4.53,6.09-4.88C345-220.73,347.88-218.98,349.07-215.52z
		"/>
</g>
<g>
	<path class="st0" d="M126.19,153.14h8.79v63.6h-7.83v-5.92c-3.22,4.26-8.18,6.87-14.01,6.87c-10.88,0-19.58-9.05-19.58-20.53
		c0-11.48,8.7-20.53,19.58-20.53c5.31,0,9.83,2.09,13.05,5.74V153.14z M126.1,197.17c0-7.4-4.87-12.88-11.57-12.88
		c-6.61,0-11.66,5.48-11.66,12.88c0,7.31,5.05,12.79,11.66,12.79C121.23,209.96,126.1,204.56,126.1,197.17z"/>
	<path class="st0" d="M152.9,199.26c0.87,6.96,5.74,11.49,12.62,11.49c4.35,0,8.61-1.91,10.88-4.87l7.05,3.22
		c-3.65,5.39-10.35,8.7-17.84,8.7c-12.18,0-22.1-8.7-22.1-20.62c0-11.14,8.44-20.62,21.06-20.62c11.22,0,20.71,7.13,20.71,18.79
		c0,0,0,1.22-0.26,3.92H152.9z M153.16,193.43h22.88c-0.87-5.83-5.39-9.83-11.48-9.83C158.81,183.6,154.46,187.51,153.16,193.43z"/>
	<path class="st0" d="M201.09,199.26c0.87,6.96,5.74,11.49,12.62,11.49c4.35,0,8.61-1.91,10.88-4.87l7.05,3.22
		c-3.65,5.39-10.35,8.7-17.84,8.7c-12.18,0-22.1-8.7-22.1-20.62c0-11.14,8.44-20.62,21.06-20.62c11.22,0,20.71,7.13,20.71,18.79
		c0,0,0,1.22-0.26,3.92H201.09z M201.35,193.43h22.88c-0.87-5.83-5.39-9.83-11.48-9.83C207.01,183.6,202.66,187.51,201.35,193.43z"
		/>
	<path class="st0" d="M283.4,197.17c0,11.49-8.61,20.53-19.58,20.53c-5.31,0-9.83-2.09-13.05-5.74v25.49h-8.79v-59.86h7.92v5.92
		c3.22-4.35,8.09-6.87,13.92-6.87C274.7,176.63,283.4,185.68,283.4,197.17z M274.17,197.17c0-7.4-5.05-12.88-11.75-12.88
		c-6.7,0-11.66,5.48-11.66,12.88c0,7.31,4.96,12.79,11.66,12.79C269.13,209.96,274.17,204.48,274.17,197.17z"/>
	<path class="st0" d="M317.93,199.26c0.87,6.96,5.74,11.49,12.62,11.49c4.35,0,8.61-1.91,10.88-4.87l7.05,3.22
		c-3.65,5.39-10.35,8.7-17.84,8.7c-12.18,0-22.1-8.7-22.1-20.62c0-11.14,8.44-20.62,21.06-20.62c11.22,0,20.71,7.13,20.71,18.79
		c0,0,0,1.22-0.26,3.92H317.93z M318.19,193.43h22.88c-0.87-5.83-5.39-9.83-11.49-9.83C323.85,183.6,319.5,187.51,318.19,193.43z"/>
	<path class="st0" d="M390.92,177.59h7.31v39.15h-7.31v-6.7c-3.22,4.79-8.35,7.66-14.62,7.66c-11.05,0-19.58-8.96-19.58-20.53
		c0-11.57,8.53-20.53,19.58-20.53c6.26,0,11.4,2.87,14.62,7.66V177.59z M389.27,197.17c0-7.4-4.87-12.88-11.57-12.88
		c-6.61,0-11.66,5.48-11.66,12.88c0,7.31,5.05,12.79,11.66,12.79C384.4,209.96,389.27,204.56,389.27,197.17z"/>
	<path class="st0" d="M435.03,176.9l-0.17,7.66c-0.96-0.17-2-0.26-3.13-0.26c-8.87,0-14.09,5.74-14.09,15.57v16.88h-8.79v-39.15
		h8.18v8.44c2.52-5.83,7.83-9.48,14.7-9.48C433.03,176.55,434.25,176.63,435.03,176.9z"/>
	<path class="st0" d="M464.7,217.27c-0.7,0.35-2.35,0.52-4.18,0.52c-9.22,0-15.05-5.66-15.05-14.44v-18.01h-5.13v-7.74h5.13v-10.27
		l8.79-1.91v12.18h7.83v7.74h-7.83v17.23c0,4.61,2.44,7.4,6.35,7.4c0.96,0,2.17-0.09,3.04-0.44L464.7,217.27z"/>
	<path class="st0" d="M510.89,194.21v22.53h-8.79v-22.01c0-6.44-4.26-10.88-10.35-10.88c-6.09,0-10.53,4.52-10.53,10.88v22.01h-8.87
		v-63.6h8.87v28.89c2.7-3.48,6.87-5.48,12.09-5.48C503.41,176.55,510.89,183.94,510.89,194.21z"/>
</g>
<path class="st4" d="M-213.51-254.64"/>
</svg>
