<?xml version="1.0" encoding="utf-8"?>
<!-- Generator: Adobe Illustrator 26.2.1, SVG Export Plug-In . SVG Version: 6.00 Build 0)  -->
<svg version="1.1" id="Layer_1" xmlns="http://www.w3.org/2000/svg" xmlns:xlink="http://www.w3.org/1999/xlink" x="0px" y="0px"
	 viewBox="0 0 417.3 84.3" style="enable-background:new 0 0 417.3 84.3;" xml:space="preserve">
<style type="text/css">
	.st0{fill:#E6E6DA;}
</style>
<polygon class="st0" points="-93.6,-153.1 518.4,-153.1 518.4,-153.1 "/>
<g class="st1">
	<path class="st2" d="M105.3-350.7c-8.6,4.4-15.6,3.3-20.8-3.1c-4.5-5.6-4.4-15.1,0.3-20.7c4.8-5.8,12.5-6.8,20.6-2.6
		c0-1.7,0-3.1,0-4.6c0-4.6,0.1-9.1,0-13.7c0-1.9,0.6-2.5,2.5-2.5c4.7,0,4.7-0.1,4.7,4.4c0,13.6,0,27.2-0.1,40.8
		c0,1.3-0.4,3.4-1.2,3.8C108.9-347.8,106.4-348.8,105.3-350.7z M88.2-364c0,5.8,3.7,9.7,9,9.7c5-0.1,9-4.4,9-9.7
		c0-5.4-3.9-9.4-9.1-9.4C91.6-373.4,88.2-369.8,88.2-364z"/>
	<path class="st2" d="M191-350.9c0,4.7-0.1,9.1,0,13.5c0,1.8-0.6,2.3-2.4,2.4c-4.7,0.1-4.7,0.2-4.7-4.6c0-12,0-24,0-36
		c0-1.2-1-3.1,1.1-3.6c2.7-0.7,4.8,0,6,2.2c4-2.8,8.4-3.7,13.1-2.2c3.4,1,6.1,3,8.2,5.9c4.1,5.7,3.6,14.8-1,20.1
		C206.5-347.5,199.5-346.6,191-350.9z M208.2-364c0-5.6-3.7-9.7-8.5-9.6c-5.4,0.1-9.3,4.2-9.3,9.8c0,5.5,4,9.7,9.1,9.6
		C204.7-354.4,208.2-358.3,208.2-364z"/>
	<path class="st2" d="M355.1-376.9c4.5-3.9,9.1-3.7,13.6-1.5c4.5,2.2,6.1,6.2,6.1,11.1c0,5.4-0.1,10.7,0,16.1c0,1.9-0.5,2.7-2.6,2.6
		c-5.2-0.2-4.4,0.5-4.5-4.5c0-4.6,0-9.1,0-13.7c0-4.2-2.3-6.8-5.8-6.8c-3.8,0-6.9,2.9-6.9,6.8c-0.1,5.2-0.1,10.4,0,15.6
		c0,2-0.7,2.6-2.6,2.6c-5.1-0.2-4.4,0.5-4.4-4.3c0-13.9,0-27.8,0-41.7c0-3.2,0-3.2,3.1-3.2c3.9,0,3.9,0,3.9,3.9
		C355.1-388.4,355.1-382.9,355.1-376.9z"/>
	<path class="st2" d="M290.4-351c-8.1,4.6-15.7,3.6-20.8-2.6c-4.9-5.9-4.8-15,0.1-20.8c5.1-6.1,12.7-7.1,20.5-2.7
		c1.1-3.1,3.8-2.1,6-2.1c0.4,0,1.1,1.1,1.2,1.6c0.1,9,0,18.1,0,27.1c0,1.3-0.6,2-1.9,1.8C293.6-348.9,291-347.5,290.4-351z
		 M273-363.9c0,5.6,3.8,9.6,9.1,9.6c5-0.1,8.9-4.3,8.9-9.7c0-5.4-3.8-9.4-9-9.4C276.5-373.4,273-369.7,273-363.9z"/>
	<path class="st2" d="M178.2-356.2c-2.5,5.3-8.1,8.6-13.7,8.3c-6.3-0.3-11.6-4.2-13.7-10c-2.8-7.8-0.2-16,6.4-20
		c5.2-3.2,10.5-2.8,15.4,0.3c4.9,3.1,6.6,7.9,6.3,13.6c-0.1,1.6-1.1,1.9-2.5,1.9c-5.7,0-11.4,0-17,0c-2.6,0-3,0.5-2,3
		c2,4.8,8.6,6.4,12.7,3c1-0.8,2-2.4,2.8-2.2C174.8-358.1,176.4-357,178.2-356.2z M157.8-368.8c4.6,0,9.1,0,13.6,0
		c-1-3.3-3.1-4.7-6.6-4.6C161.1-373.4,158.7-371.8,157.8-368.8z"/>
	<path class="st2" d="M124.7-362.1c0.3,3.7,1.9,5.9,4.9,7.1c3,1.2,5.9,1,8.5-1.2c0.9-0.8,1.9-2.3,2.6-2.2c1.8,0.3,3.4,1.4,5.1,2.2
		c-2.6,6.3-10.2,9.6-17,7.8c-7.5-2-11.6-8.6-11.1-17.7c0.4-6.9,5.9-12.8,12.8-13.8c9-1.4,17.1,6.5,16.3,15.6
		c-0.2,1.8-1.1,2.2-2.7,2.2c-5.5,0-11,0-16.6,0C126.7-362.1,125.9-362.1,124.7-362.1z M139.3-368.6c-1.2-3.5-3.8-5.1-7.1-4.9
		c-3.6,0.3-5.8,1.9-6.5,4.9C130.1-368.6,134.6-368.6,139.3-368.6z"/>
	<path class="st2" d="M241-361.9c0.4,3.7,2.1,6,5.1,7.1c3.1,1.1,6.3,1,8.4-1.6c1.9-2.4,3.6-2,5.6-0.7c0.6,0.4,1.2,0.7,2.2,1.2
		c-2,3.5-4.6,6-8.3,7.2c-10,3.3-19.9-3.8-20.1-14.3c-0.2-9.5,4.9-15.9,13.7-16.9c8.7-1.1,17,7.7,15.4,16.3c-0.3,1.5-1.2,1.6-2.5,1.6
		c-5.6,0-11.2,0-16.8,0C242.9-362,242-362,241-361.9z M255.5-368.7c-1.2-3.5-4.1-5.2-7.4-4.9c-3.4,0.4-5.8,2.2-6.1,4.9
		C246.4-368.7,250.8-368.7,255.5-368.7z"/>
	<path class="st2" d="M335.8-392.1c0,2.3,0,4.4,0,6.5c0,0.6,0,1.3,0,1.9c0,4.3,0,4.4,4.2,4.5c1.5,0,2.2,0.5,2.1,2.1
		c0,0.7,0,1.4,0,2.2c0.1,1.6-0.6,2.2-2.2,2.3c-4.1,0.1-4.1,0.2-4.1,4.4c0,3.1,0,6.2,0,9.4c0,3.5,0.7,4.1,4.2,3.8
		c0.8-0.1,1.6-0.1,2.7-0.2c0,1.7,0.2,3.3-0.1,4.9c-0.1,0.6-1,1.5-1.7,1.6c-6.5,1.3-12.3-1.9-12.1-9c0.1-4.2,0-8.3,0-12.5
		c0-1.7-0.5-2.5-2.3-2.4c-1.1,0-3-0.2-3.2-0.7c-0.4-1.6-0.3-3.3-0.1-5c0.1-0.4,1.6-0.8,2.5-0.7c2.5,0.3,3.2-0.6,3.1-3.1
		C328.7-386.1,332.1-391,335.8-392.1z"/>
	<path class="st2" d="M311.3-377.1c2.6-1,4.9-2.1,7.4-2.7c1-0.2,3,0.5,3.2,1.1c0.5,1.7,0.2,3.6,0,5.4c0,0.3-1.4,0.5-2.1,0.6
		c-6.2,0.2-8.4,2.4-8.3,8.7c0,4.4,0,8.8,0,13.2c0,1.6-0.5,2.3-2.2,2.2c-5.7-0.1-4.8,0.5-4.8-4.6c-0.1-7.7,0-15.4,0-23
		c0-1-0.7-2.5,1.2-2.9c2.8-0.6,4.7,0,5.5,1.8C311.3-377.2,311.4-376.9,311.3-377.1z"/>
	<path class="st3" d="M88.2-364c0-5.8,3.4-9.4,8.9-9.4c5.2,0,9.1,4,9.1,9.4c0,5.3-4,9.6-9,9.7C91.9-354.2,88.2-358.2,88.2-364z"/>
	<path class="st3" d="M208.2-364c0,5.7-3.5,9.7-8.6,9.8c-5.2,0.1-9.1-4.1-9.1-9.6c0-5.6,3.8-9.7,9.3-9.8
		C204.5-373.8,208.2-369.6,208.2-364z"/>
	<path class="st3" d="M273-363.9c0-5.8,3.5-9.6,9-9.5c5.2,0,9,4,9,9.4c0,5.3-3.9,9.6-8.9,9.7C276.8-354.2,273-358.2,273-363.9z"/>
	<path class="st3" d="M157.8-368.8c0.9-3.1,3.3-4.6,7-4.6c3.5,0,5.6,1.4,6.6,4.6C166.9-368.8,162.4-368.8,157.8-368.8z"/>
	<path class="st3" d="M139.3-368.6c-4.7,0-9.2,0-13.7,0c0.7-3,2.9-4.6,6.5-4.9C135.5-373.8,138.1-372.1,139.3-368.6z"/>
	<path class="st3" d="M255.5-368.7c-4.7,0-9.1,0-13.5,0c0.3-2.6,2.7-4.5,6.1-4.9C251.4-373.9,254.3-372.1,255.5-368.7z"/>
</g>
<g>
	<path class="st0" d="M32.6,0h8.8v63.6h-7.8v-5.9c-3.2,4.3-8.2,6.9-14,6.9C8.7,64.5,0,55.5,0,44s8.7-20.5,19.6-20.5
		c5.3,0,9.8,2.1,13.1,5.7L32.6,0z M32.5,44c0-7.4-4.9-12.9-11.6-12.9c-6.6,0-11.7,5.5-11.7,12.9c0,7.3,5.1,12.8,11.7,12.8
		C27.7,56.8,32.5,51.4,32.5,44z"/>
	<path class="st0" d="M59.3,46.1c0.9,7,5.7,11.5,12.6,11.5c4.4,0,8.6-1.9,10.9-4.9l7.1,3.2c-3.6,5.4-10.4,8.7-17.8,8.7
		C59.9,64.7,50,56,50,44c0-11.1,8.4-20.6,21.1-20.6c11.2,0,20.7,7.1,20.7,18.8c0,0,0,1.2-0.3,3.9L59.3,46.1L59.3,46.1z M59.6,40.3
		h22.9c-0.9-5.8-5.4-9.8-11.5-9.8C65.3,30.5,60.9,34.4,59.6,40.3z"/>
	<path class="st0" d="M107.5,46.1c0.9,7,5.7,11.5,12.6,11.5c4.4,0,8.6-1.9,10.9-4.9l7.1,3.2c-3.6,5.4-10.4,8.7-17.8,8.7
		c-12.2,0-22.1-8.7-22.1-20.6c0-11.1,8.4-20.6,21.1-20.6c11.2,0,20.7,7.1,20.7,18.8c0,0,0,1.2-0.3,3.9L107.5,46.1L107.5,46.1z
		 M107.8,40.3h22.9c-0.9-5.8-5.4-9.8-11.5-9.8C113.5,30.5,109.1,34.4,107.8,40.3z"/>
	<path class="st0" d="M189.8,44c0,11.5-8.6,20.5-19.6,20.5c-5.3,0-9.8-2.1-13-5.7v25.5h-8.8V24.4h7.9v5.9c3.2-4.4,8.1-6.9,13.9-6.9
		C181.1,23.5,189.8,32.5,189.8,44z M180.6,44c0-7.4-5-12.9-11.8-12.9c-6.7,0-11.7,5.5-11.7,12.9c0,7.3,5,12.8,11.7,12.8
		C175.6,56.8,180.6,51.3,180.6,44z"/>
	<path class="st0" d="M224.4,46.1c0.9,7,5.7,11.5,12.6,11.5c4.4,0,8.6-1.9,10.9-4.9l7,3.2c-3.6,5.4-10.4,8.7-17.8,8.7
		C224.9,64.7,215,56,215,44c0-11.1,8.4-20.6,21.1-20.6c11.2,0,20.7,7.1,20.7,18.8c0,0,0,1.2-0.3,3.9L224.4,46.1L224.4,46.1z
		 M224.6,40.3h22.9c-0.9-5.8-5.4-9.8-11.5-9.8C230.3,30.5,225.9,34.4,224.6,40.3z"/>
	<path class="st0" d="M297.4,24.4h7.3v39.1h-7.3v-6.7c-3.2,4.8-8.4,7.7-14.6,7.7c-11,0-19.6-9-19.6-20.5s8.5-20.5,19.6-20.5
		c6.3,0,11.4,2.9,14.6,7.7V24.4z M295.7,44c0-7.4-4.9-12.9-11.6-12.9c-6.6,0-11.7,5.5-11.7,12.9c0,7.3,5,12.8,11.7,12.8
		C290.8,56.8,295.7,51.4,295.7,44z"/>
	<path class="st0" d="M341.5,23.8l-0.2,7.7c-1-0.2-2-0.3-3.1-0.3c-8.9,0-14.1,5.7-14.1,15.6v16.9h-8.8V24.5h8.2v8.4
		c2.5-5.8,7.8-9.5,14.7-9.5C339.5,23.4,340.7,23.5,341.5,23.8z"/>
	<path class="st0" d="M371.1,64.1c-0.7,0.4-2.4,0.5-4.2,0.5c-9.2,0-15-5.7-15-14.4v-18h-5.1v-7.7h5.1V14.2l8.8-1.9v12.2h7.8v7.7
		h-7.8v17.2c0,4.6,2.4,7.4,6.4,7.4c1,0,2.2-0.1,3-0.4L371.1,64.1z"/>
	<path class="st0" d="M417.3,41.1v22.5h-8.8v-22c0-6.4-4.3-10.9-10.4-10.9s-10.5,4.5-10.5,10.9v22h-8.9V0h8.9v28.9
		c2.7-3.5,6.9-5.5,12.1-5.5C409.9,23.4,417.3,30.8,417.3,41.1z"/>
</g>
<path class="st4" d="M-307.1-407.8"/>
</svg>
